#N canvas 0 22 450 300 10;
#X obj 116 246 s ard-out-\$1;
#X obj 185 118 r toain-onoff;
#X obj 185 140 route;
#X obj 281 120 loadbang;
#X obj 281 142 f \$1;
#X obj 116 128 spigot;
#X obj 304 23 inlet;
#X obj 116 190 * 1;
#X obj 116 225 + 0;
#X obj 133 159 r mult;
#X obj 143 201 r offset;
#X obj 116 59 r player-\$1;
#X obj 62 150 + 1;
#X obj 62 172 * 0.5;
#X connect 1 0 2 0;
#X connect 2 0 5 1;
#X connect 3 0 4 0;
#X connect 4 0 2 1;
#X connect 5 0 12 0;
#X connect 7 0 8 0;
#X connect 8 0 0 0;
#X connect 9 0 7 1;
#X connect 10 0 8 1;
#X connect 11 0 5 0;
#X connect 12 0 13 0;
#X connect 13 0 7 0;
