#N canvas 78 86 579 692 10;
#X obj 15 54 metro 10;
#X obj 15 136 abs-lorenz;
#X obj 50 341 vline~;
#X obj 102 341 vline~;
#X obj 155 341 vline~;
#X obj 50 373 +~;
#X obj 50 405 +~;
#X obj 50 477 *~;
#X obj 65 429 pack f 10;
#X obj 65 451 line~;
#X obj 287 24 inlet;
#X obj 287 58 s \$0-onoff;
#X obj 246 339 r \$0-onoff;
#X obj 15 9 r \$0-onoff;
#X obj 95 220 abs-siginfo;
#X obj 50 289 unpack f f f, f 18;
#X msg 15 76 print 1;
#X obj 155 313 change;
#X obj 102 313 change;
#X obj 50 313 change;
#X obj 213 312 abs-norm;
#X obj 213 364 spigot;
#X obj 259 364 sel 0;
#X msg 259 387 0;
#X text 84 96 This abstraction analizes [lorenz] at or below sample
rate speed and reads the rate of slope changes with vline~. It adds
x \, y and z slope changes together \, and uses a normalized distance
as general amplitude.;
#X obj 88 69 r lordard-\$1;
#N canvas 125 64 450 300 lp-cut 0;
#X obj 65 31 r \$0-lp;
#X floatatom 65 53 5 0 0 0 - - -, f 5;
#X obj 65 72 change;
#X obj 65 94 sel 0;
#X msg 99 114 1;
#X msg 66 116 0;
#X obj 68 155 pack f 10;
#X obj 68 177 line~;
#X obj 68 199 outlet~;
#X obj 157 170 s \$0-thisonoff;
#X text 162 149 if 0 then turn speed to 128/samplerate;
#X connect 0 0 1 0;
#X connect 1 0 2 0;
#X connect 2 0 3 0;
#X connect 3 0 5 0;
#X connect 3 1 4 0;
#X connect 4 0 6 0;
#X connect 4 0 9 0;
#X connect 5 0 6 0;
#X connect 5 0 9 0;
#X connect 6 0 7 0;
#X connect 7 0 8 0;
#X restore 65 509 pd lp-cut;
#X obj 50 532 *~;
#X obj 184 656 throw~ ainout-\$1;
#X obj 322 345 vline~;
#X obj 374 345 vline~;
#X obj 427 345 vline~;
#X obj 322 377 +~;
#X obj 322 402 +~;
#X obj 322 293 unpack f f f, f 18;
#X obj 427 317 change;
#X obj 374 317 change;
#X obj 322 317 change;
#X obj 184 549 +~;
#X obj 322 532 *~;
#X obj 322 480 *~;
#X obj 337 430 pack f 10;
#X obj 337 452 line~;
#X text 44 558 raw lorenz;
#X text 319 556 siginfo 0/1;
#N canvas 429 62 253 299 hp 0;
#X obj 63 31 r \$0-hp;
#X obj 100 80 moses 0.5;
#X obj 100 128 t b;
#X msg 100 150 0.01;
#X obj 63 53 sel 0;
#X msg 63 151 0;
#X obj 130 185 change;
#X obj 130 206 pack f 10;
#X obj 130 228 line~;
#X obj 130 250 outlet~;
#X obj 151 106 - 0.5;
#X obj 151 128 * 2;
#X obj 151 150 pow 2;
#X obj 63 128 t b;
#X connect 0 0 4 0;
#X connect 1 0 2 0;
#X connect 1 1 10 0;
#X connect 2 0 3 0;
#X connect 3 0 6 0;
#X connect 4 0 13 0;
#X connect 4 1 1 0;
#X connect 5 0 6 0;
#X connect 6 0 7 0;
#X connect 7 0 8 0;
#X connect 8 0 9 0;
#X connect 10 0 11 0;
#X connect 11 0 12 0;
#X connect 12 0 6 0;
#X connect 13 0 5 0;
#X restore 337 508 pd hp;
#N canvas 582 45 350 289 speed 1;
#X msg 85 218 tempo \$1 sample;
#X obj 22 78 moses 0.008;
#X obj 85 50 r limite-inferior;
#X obj 85 246 outlet;
#X obj 22 21 r ard-out-\$1;
#X text 187 219 pulse every X sample;
#X obj 22 104 s \$0-lp;
#X obj 124 133 s \$0-hp;
#X obj 188 124 r \$0-thisonoff;
#X obj 188 166 sel 0 1;
#X msg 188 188 128;
#X msg 223 189 bang;
#X obj 22 50 f;
#X obj 85 133 f;
#X obj 188 146 change;
#X obj 85 109 t f f;
#X floatatom 111 166 5 0 0 0 - - -, f 5;
#X obj 111 185 int;
#X obj 111 207 change;
#X connect 0 0 3 0;
#X connect 1 0 6 0;
#X connect 1 1 15 0;
#X connect 2 0 1 1;
#X connect 4 0 12 0;
#X connect 8 0 14 0;
#X connect 9 0 10 0;
#X connect 9 1 11 0;
#X connect 10 0 0 0;
#X connect 11 0 13 0;
#X connect 12 0 1 0;
#X connect 13 0 16 0;
#X connect 14 0 9 0;
#X connect 15 0 13 0;
#X connect 15 1 7 0;
#X connect 16 0 17 0;
#X connect 17 0 18 0;
#X connect 18 0 0 0;
#X restore 23 31 pd speed from ard-outs;
#X text 127 428 << normalized distance = gain >>;
#X text 134 509 if x == 0;
#X text 377 508 if x > 0.5;
#X text 189 173 << print to see what's happening...;
#X obj 15 158 t l l;
#X obj 204 255 list split 3;
#X obj 186 580 lop~ 22000;
#X obj 186 602 hip~ 3;
#X obj 194 624 *~ 0.00231;
#X connect 0 0 16 0;
#X connect 1 0 51 0;
#X connect 2 0 5 0;
#X connect 3 0 5 1;
#X connect 4 0 6 1;
#X connect 5 0 6 0;
#X connect 6 0 7 0;
#X connect 7 0 27 0;
#X connect 8 0 9 0;
#X connect 9 0 7 1;
#X connect 10 0 11 0;
#X connect 12 0 21 1;
#X connect 12 0 22 0;
#X connect 13 0 0 0;
#X connect 14 0 52 0;
#X connect 15 0 19 0;
#X connect 15 1 18 0;
#X connect 15 2 17 0;
#X connect 16 0 1 0;
#X connect 17 0 4 0;
#X connect 18 0 3 0;
#X connect 19 0 2 0;
#X connect 20 0 21 0;
#X connect 21 0 8 0;
#X connect 21 0 41 0;
#X connect 22 0 23 0;
#X connect 23 0 8 0;
#X connect 23 0 41 0;
#X connect 25 0 1 1;
#X connect 26 0 27 1;
#X connect 27 0 38 0;
#X connect 29 0 32 0;
#X connect 30 0 32 1;
#X connect 31 0 33 1;
#X connect 32 0 33 0;
#X connect 33 0 40 0;
#X connect 34 0 37 0;
#X connect 34 1 36 0;
#X connect 34 2 35 0;
#X connect 35 0 31 0;
#X connect 36 0 30 0;
#X connect 37 0 29 0;
#X connect 38 0 53 0;
#X connect 39 0 38 1;
#X connect 40 0 39 0;
#X connect 41 0 42 0;
#X connect 42 0 40 1;
#X connect 45 0 39 1;
#X connect 46 0 0 0;
#X connect 51 0 15 0;
#X connect 51 1 14 0;
#X connect 52 0 34 0;
#X connect 52 1 20 0;
#X connect 53 0 54 0;
#X connect 54 0 55 0;
#X connect 55 0 28 0;
