#N canvas 242 40 549 266 10;
#N canvas 602 42 633 291 randomize 0;
#X obj 284 236 s \$0-inith-set;
#X obj 13 12 r \$0-randomize;
#X obj 13 34 t b b b b;
#X obj 193 236 s \$0-initc-set;
#X obj 102 236 s \$0-initb-set;
#X obj 12 236 s \$0-inita-set;
#X obj 251 8 r diverge;
#X obj 251 30 s \$0-randomize-set;
#X obj 179 7 r lstate-\$1;
#X obj 179 29 route rnd;
#X obj 13 138 / 1000;
#X obj 13 160 + 5;
#X obj 13 116 random 10000;
#X obj 294 140 / 1000;
#X obj 111 139 / 1000;
#X obj 111 117 random 25000;
#X obj 111 161 + 15;
#X obj 200 136 / 1000;
#X obj 200 158 + 0.4;
#X obj 200 114 random 6000;
#X obj 294 118 random 1e+06;
#X obj 294 162 + 1;
#X connect 1 0 2 0;
#X connect 2 0 12 0;
#X connect 2 1 15 0;
#X connect 2 2 19 0;
#X connect 2 3 20 0;
#X connect 6 0 7 0;
#X connect 8 0 9 0;
#X connect 9 0 7 0;
#X connect 10 0 11 0;
#X connect 11 0 5 0;
#X connect 12 0 10 0;
#X connect 13 0 21 0;
#X connect 14 0 16 0;
#X connect 15 0 14 0;
#X connect 16 0 4 0;
#X connect 17 0 18 0;
#X connect 18 0 3 0;
#X connect 19 0 17 0;
#X connect 20 0 13 0;
#X connect 21 0 0 0;
#X restore 21 137 pd randomize;
#N canvas 610 95 316 412 reset 0;
#X obj 90 42 t b b b b b b b;
#X obj 90 382 s \$0-inita-set;
#X msg 90 358 10;
#X obj 104 336 s \$0-initb-set;
#X obj 119 287 s \$0-initc-set;
#X msg 104 311 28;
#X msg 119 264 2.667;
#X obj 133 241 s \$0-inith-set;
#X msg 133 220 1000;
#X obj 148 195 s \$0-initx-set;
#X obj 162 138 s \$0-inity-set;
#X obj 177 91 s \$0-initz-set;
#X msg 162 113 0.131115;
#X msg 148 162 0.148115, f 11;
#X obj 90 20 r \$0-reset;
#X obj 194 20 r reset-all;
#X obj 194 42 s \$0-reset-set;
#X msg 177 67 1.67883;
#X obj 12 123 r \$0-initx;
#X msg 12 145 set \$1;
#X msg 12 96 set \$1;
#X msg 13 50 set \$1;
#X obj 12 74 r \$0-inity;
#X obj 13 28 r \$0-initz;
#X connect 0 0 2 0;
#X connect 0 1 5 0;
#X connect 0 2 6 0;
#X connect 0 3 8 0;
#X connect 0 4 13 0;
#X connect 0 5 12 0;
#X connect 0 6 17 0;
#X connect 2 0 1 0;
#X connect 5 0 3 0;
#X connect 6 0 4 0;
#X connect 8 0 7 0;
#X connect 12 0 10 0;
#X connect 13 0 9 0;
#X connect 14 0 0 0;
#X connect 15 0 16 0;
#X connect 17 0 11 0;
#X connect 18 0 19 0;
#X connect 19 0 13 0;
#X connect 20 0 12 0;
#X connect 21 0 17 0;
#X connect 22 0 20 0;
#X connect 23 0 21 0;
#X restore 21 96 pd reset;
#N canvas 0 22 464 334 tolordard 0;
#X obj 19 15 r \$0-inita;
#X obj 19 37 list prepend \$1 inita;
#X msg 27 271 \; lordard-\$1 \$2 \$3;
#X obj 19 59 list trim;
#X obj 159 59 list trim;
#X obj 19 81 s \$0-tolordard;
#X obj 27 250 r \$0-tolordard;
#X obj 159 81 s \$0-tolordard;
#X obj 159 15 r \$0-initb;
#X obj 159 37 list prepend \$1 initb;
#X obj 299 59 list trim;
#X obj 299 81 s \$0-tolordard;
#X obj 299 15 r \$0-initc;
#X obj 299 37 list prepend \$1 initc;
#X obj 19 159 list trim;
#X obj 159 159 list trim;
#X obj 19 181 s \$0-tolordard;
#X obj 159 181 s \$0-tolordard;
#X obj 299 159 list trim;
#X obj 299 181 s \$0-tolordard;
#X obj 19 115 r \$0-initx;
#X obj 19 137 list prepend \$1 initx;
#X obj 159 137 list prepend \$1 inity;
#X obj 299 137 list prepend \$1 initz;
#X obj 299 115 r \$0-initz;
#X obj 299 279 list trim;
#X obj 299 301 s \$0-tolordard;
#X obj 159 115 r \$0-inity;
#X obj 299 216 r \$0-inith;
#X obj 299 257 list prepend \$1 inith;
#X obj 299 237 / 100000;
#X obj 168 267 r \$0-reset;
#X obj 168 289 s lordard-\$1;
#X text 166 247 reset;
#X text 25 213 send info to lorenz;
#X connect 0 0 1 0;
#X connect 1 0 3 0;
#X connect 3 0 5 0;
#X connect 4 0 7 0;
#X connect 6 0 2 0;
#X connect 8 0 9 0;
#X connect 9 0 4 0;
#X connect 10 0 11 0;
#X connect 12 0 13 0;
#X connect 13 0 10 0;
#X connect 14 0 16 0;
#X connect 15 0 17 0;
#X connect 18 0 19 0;
#X connect 20 0 21 0;
#X connect 21 0 14 0;
#X connect 22 0 15 0;
#X connect 23 0 18 0;
#X connect 24 0 23 0;
#X connect 25 0 26 0;
#X connect 27 0 22 0;
#X connect 28 0 30 0;
#X connect 29 0 25 0;
#X connect 30 0 29 0;
#X connect 31 0 32 0;
#X restore 21 117 pd tolordard;
#N canvas 408 261 594 425 initial 0;
#X obj 184 47 t b b b;
#X obj 42 326 s \$0-initx-set;
#X obj 435 285 s \$0-initz-set;
#X obj 320 357 s \$0-inity-set;
#X obj 184 25 r loadbang;
#X obj 109 134 random 1000;
#X obj 109 156 / 1000;
#X obj 109 178 + 0.1;
#X obj 196 133 random 1000;
#X obj 196 155 / 1000;
#X obj 196 177 + 0.1;
#X obj 294 159 / 1000;
#X obj 294 181 + 0.1;
#X obj 294 137 random 2000;
#X connect 0 0 5 0;
#X connect 0 1 8 0;
#X connect 0 2 13 0;
#X connect 4 0 0 0;
#X connect 5 0 6 0;
#X connect 6 0 7 0;
#X connect 7 0 1 0;
#X connect 8 0 9 0;
#X connect 9 0 10 0;
#X connect 10 0 3 0;
#X connect 11 0 12 0;
#X connect 12 0 2 0;
#X connect 13 0 11 0;
#X restore 22 157 pd initial;
#X obj 20 20 cnv 15 280 65 empty empty lstate-\$1 5 8 0 8 -1 -262144
0;
#X obj 165 37 nbx 5 14 -1e+37 1e+37 0 0 \$0-initb \$0-initb-set initb
0 -8 0 10 -262144 -1 -262144 0 256;
#X obj 234 37 nbx 5 14 -1e+37 1e+37 0 0 \$0-initc \$0-initc-set initc
0 -8 0 10 -262144 -1 -262144 0 256;
#X obj 234 66 nbx 5 14 1 1000 0 0 \$0-inith \$0-inith-set inith 0 -8
0 10 -262144 -1 -262144 1 256;
#X obj 27 67 nbx 5 14 -1e+37 1e+37 0 0 \$0-initx \$0-initx-set initx
0 -8 0 10 -262144 -1 -262144 0 256;
#X obj 95 67 nbx 5 14 -1e+37 1e+37 0 0 \$0-inity \$0-inity-set inity
0 -8 0 10 -262144 -1 -262144 0 256;
#X obj 165 67 nbx 5 14 -1e+37 1e+37 0 0 \$0-initz \$0-initz-set initz
0 -8 0 10 -262144 -1 -262144 0 256;
#X obj 28 36 bng 15 250 50 0 \$0-randomize \$0-randomize-set randomize
17 7 0 8 -262144 -4034 -262144;
#X obj 278 24 bng 8 250 50 0 \$0-reset \$0-reset-set empty 17 7 0 10
-262144 -4034 -1;
#X obj 96 37 nbx 5 14 -1e+37 1e+37 0 0 \$0-inita \$0-inita-set inita
0 -8 0 10 -262144 -1 -262144 0 256;
#X obj 290 24 tgl 8 0 empty empty empty 17 7 0 10 -262144 -1 -1 0 1
;
#X obj 446 32 tgl 40 0 empty empty hide 0 -10 0 10 -262144 -1 -1 0
1;
#X msg 321 60 set \$1;
#X obj 310 95 t b f;
#X obj 310 117 f \$1;
#X obj 310 139 pack;
#X obj 21 184 namecanvas thislstate\$1;
#X msg 311 167 \; thislstate\$1 vis \$2 \;;
#X connect 14 0 16 0;
#X connect 14 0 17 0;
#X connect 15 0 14 0;
#X connect 16 0 15 0;
#X connect 17 0 18 0;
#X connect 17 1 19 1;
#X connect 18 0 19 0;
#X connect 19 0 21 0;
#X coords 0 -1 1 1 280 65 2 20 20;
