#N canvas 810 131 370 436 10;
#X obj 19 336 *~;
#X obj 19 363 throw~ presum;
#X obj 182 319 adsr 1 3000 2000 100 5000;
#X obj 19 269 tabosc4~ wshape-\$1;
#X obj 29 88 t b f;
#N canvas 0 22 450 300 mtf 0;
#X obj 42 25 inlet;
#X obj 42 151 outlet;
#X obj 42 47 / 48;
#X floatatom 42 91 5 0 0 0 - - -, f 5;
#X obj 42 110 * 4;
#X floatatom 42 132 5 0 0 0 - - -, f 5;
#X floatatom 132 93 5 0 0 0 - - -, f 5;
#X obj 42 69 * 110;
#X connect 0 0 2 0;
#X connect 2 0 7 0;
#X connect 3 0 4 0;
#X connect 4 0 5 0;
#X connect 5 0 1 0;
#X connect 6 0 4 1;
#X connect 7 0 3 0;
#X restore 29 66 pd mtf;
#X obj 29 110 tgl 15 0 empty empty empty 17 7 0 10 -262144 -1 -1 0
1;
#X obj 199 61 / 127;
#X obj 199 83 t f f;
#X obj 284 100 sel 0;
#X obj 285 123 t b;
#X obj 285 145 random 3000;
#X obj 285 167 + 5;
#X obj 29 7 r mparty-\$1;
#X obj 29 29 unpack;
#X obj 36 218 +~;
#X obj 90 191 tabosc4~ wshape-\$1;
#X obj 129 107 -;
#X obj 99 62 t b b;
#X obj 146 86 f \$1;
#X msg 124 164 set wshape-\$1;
#X obj 126 21 r loadbang;
#X obj 196 20 loadbang;
#X obj 90 213 *~;
#X obj 285 189 t f f;
#X obj 199 105 t f f;
#X obj 192 135 * 20;
#X obj 60 121 * 0.3;
#X obj 268 17 r indx;
#X obj 286 42 r mod;
#X obj 256 210 * 0.1;
#X obj 171 248 adsr 1 3000 100 33 2000;
#X obj 105 85 int 5;
#X obj 109 131 + 1;
#X connect 0 0 1 0;
#X connect 2 0 0 1;
#X connect 3 0 0 0;
#X connect 4 0 6 0;
#X connect 4 1 15 0;
#X connect 4 1 27 0;
#X connect 5 0 4 0;
#X connect 6 0 2 0;
#X connect 6 0 31 0;
#X connect 7 0 8 0;
#X connect 8 0 25 0;
#X connect 8 1 9 0;
#X connect 9 1 10 0;
#X connect 10 0 11 0;
#X connect 11 0 12 0;
#X connect 12 0 24 0;
#X connect 13 0 14 0;
#X connect 14 0 5 0;
#X connect 14 1 7 0;
#X connect 15 0 3 0;
#X connect 16 0 23 0;
#X connect 17 0 33 0;
#X connect 18 0 32 0;
#X connect 18 1 19 0;
#X connect 19 0 17 1;
#X connect 20 0 16 0;
#X connect 21 0 18 0;
#X connect 22 0 18 0;
#X connect 23 0 15 1;
#X connect 24 0 30 0;
#X connect 24 1 2 2;
#X connect 25 0 26 0;
#X connect 25 1 2 1;
#X connect 26 0 31 1;
#X connect 27 0 16 0;
#X connect 28 0 26 1;
#X connect 29 0 27 1;
#X connect 30 0 31 2;
#X connect 31 0 23 1;
#X connect 32 0 17 0;
#X connect 33 0 20 0;
