#N canvas 0 22 558 621 10;
#X text 79 19 player \$1;
#X text 79 40 canon inicial \$2;
#X text 79 60 canon final \$3;
#X obj 46 263 f;
#X obj 81 263 + 1;
#X obj 32 231 sel 0;
#X msg 46 377 set sistema-\$1;
#X obj 222 264 f;
#X obj 257 264 + 1;
#X obj 286 265 mod 6;
#X obj 110 264 mod 5;
#X obj 46 285 + 1;
#X obj 124 231 - 1;
#X obj 222 286 sel 5;
#X obj 265 313 t b b b;
#X msg 405 228 0;
#X obj 87 147 tgl 15 0 empty empty empty 17 7 0 10 -262144 -1 -1 0
1;
#X obj 209 86 t f b b;
#X msg 209 64 1;
#X obj 402 208 delay 60000;
#X msg 323 164 0;
#X text 357 154 sistema inicial (0 \, 1 \, 2 \, 3 \, 4 \, 5), f 18
;
#X text 175 446 ultimo canon;
#X obj 51 514 * 1;
#X text 88 483 (inv);
#X text 401 248 end of score;
#X obj 46 307 t f b;
#X obj 18 201 t f f;
#X obj 46 329 spigot;
#X msg 159 301 1;
#X obj 121 327 tgl 15 0 empty empty empty 17 7 0 10 -262144 -1 -1 1
1;
#X msg 132 488 1;
#X msg 183 491 -1;
#X msg 278 342 0;
#X obj 210 320 bang;
#X text 244 64 canon inicial (\$2) (1 \, 2 \, 3 \, 4 \, 5);
#X text 177 430 sistema 5 == sistema-\$3 inv;
#X obj 18 173 spigot;
#X obj 15 139 inlet;
#X obj 67 109 r players-onoff;
#X obj 331 126 inlet;
#X obj 237 6 loadbang;
#X obj 237 28 f \$2;
#X obj 241 219 int 0;
#X obj 251 402 f \$3;
#X obj 319 548 outlet;
#X text 363 546 playing last system;
#X obj 51 576 s player-\$1;
#X obj 18 445 max -1;
#X obj 18 467 min 1;
#X obj 18 423 tabread sistema-\$2;
#X connect 3 0 4 0;
#X connect 3 0 11 0;
#X connect 4 0 10 0;
#X connect 5 0 3 0;
#X connect 6 0 50 0;
#X connect 7 0 8 0;
#X connect 7 0 13 0;
#X connect 8 0 9 0;
#X connect 9 0 7 1;
#X connect 10 0 3 1;
#X connect 11 0 26 0;
#X connect 12 0 3 1;
#X connect 13 0 14 0;
#X connect 13 1 34 0;
#X connect 14 0 32 0;
#X connect 14 0 44 0;
#X connect 14 1 33 0;
#X connect 14 2 19 0;
#X connect 14 2 45 0;
#X connect 15 0 16 0;
#X connect 16 0 37 1;
#X connect 17 0 12 0;
#X connect 17 1 43 0;
#X connect 17 2 29 0;
#X connect 18 0 17 0;
#X connect 19 0 15 0;
#X connect 20 0 43 1;
#X connect 23 0 47 0;
#X connect 26 0 28 0;
#X connect 26 1 7 0;
#X connect 27 0 50 0;
#X connect 27 1 5 0;
#X connect 28 0 6 0;
#X connect 29 0 30 0;
#X connect 30 0 28 1;
#X connect 31 0 23 1;
#X connect 32 0 23 1;
#X connect 33 0 30 0;
#X connect 34 0 31 0;
#X connect 37 0 27 0;
#X connect 38 0 37 0;
#X connect 39 0 16 0;
#X connect 40 0 43 1;
#X connect 41 0 42 0;
#X connect 42 0 17 0;
#X connect 43 0 7 1;
#X connect 44 0 6 0;
#X connect 48 0 49 0;
#X connect 49 0 23 0;
#X connect 50 0 48 0;
