#N canvas 525 340 355 302 10;
#X obj 30 90 / 3;
#X obj 45 69 r mult;
#X obj 30 112 - 0.5;
#X obj 30 134 * 2;
#X obj 148 80 f;
#X obj 148 102 + 1;
#X obj 148 124 % 131;
#X obj 148 58 metro 62.5;
#X obj 216 123 t b f;
#X obj 99 163 f;
#X obj 169 27 tgl 15 0 empty empty empty 17 7 0 10 -262144 -1 -1 0
1;
#X obj 219 58 route;
#X obj 274 45 loadbang;
#X obj 274 67 f \$1;
#X obj 219 23 r toain-onoff;
#X obj 99 185 change;
#X obj 121 224 tabwrite wshape-\$1;
#X obj 30 48 r ard-out-\$1;
#X connect 0 0 2 0;
#X connect 1 0 0 1;
#X connect 2 0 3 0;
#X connect 3 0 9 1;
#X connect 4 0 5 0;
#X connect 4 0 8 0;
#X connect 5 0 6 0;
#X connect 6 0 4 1;
#X connect 7 0 4 0;
#X connect 8 0 9 0;
#X connect 8 1 16 1;
#X connect 9 0 15 0;
#X connect 10 0 7 0;
#X connect 11 0 10 0;
#X connect 12 0 13 0;
#X connect 13 0 11 1;
#X connect 14 0 11 0;
#X connect 15 0 16 0;
#X connect 17 0 0 0;
